<?xml version="1.0" encoding="utf-8"?>
<!-- Generator: Adobe Illustrator 28.0.0, SVG Export Plug-In . SVG Version: 6.00 Build 0)  -->
<svg version="1.1" id="Layer_1" xmlns="http://www.w3.org/2000/svg" xmlns:xlink="http://www.w3.org/1999/xlink" x="0px" y="0px"
	 viewBox="0 0 1920 1080" style="enable-background:new 0 0 1920 1080;" xml:space="preserve">
<style type="text/css">
	.st0{fill:#FFFFFF;}
</style>
<g>
	<path class="st0" d="M475.2,578.6c2.5-0.7,4.8-1.6,7-2.7C480,577,477.7,577.9,475.2,578.6z"/>
	<path class="st0" d="M535.8,497.7c-7-11.8-17-20.9-29.9-27.3c-12.9-6.4-28.3-9.6-46.3-9.6h-59.3v158.4h59.3c18,0,33.4-3.2,46.3-9.6
		c12.9-6.4,22.9-15.5,29.9-27.4c7-11.8,10.5-25.9,10.5-42.2C546.3,523.5,542.8,509.4,535.8,497.7z M496.8,560.5
		c-2.5,5.3-5.8,9.5-9.8,12.4c-1,0.7-2.1,1.4-3.2,2c-0.5,0.3-1.1,0.6-1.6,0.9c-2.2,1.1-4.6,2-7,2.7c-0.6,0.2-1.2,0.3-1.9,0.5
		c-5.1,1.1-10.2,1.7-15.5,1.7h-12v-81.5h12c5.3,0,10.5,0.6,15.5,1.7c5,1.1,9.6,3.2,13.7,6.1c4.1,2.9,7.4,7.1,9.8,12.4
		c2.5,5.4,3.7,12.2,3.7,20.5S499.3,555.1,496.8,560.5z"/>
	<polygon class="st0" points="676,519.1 718.1,554.8 718.1,460.8 676,460.8 	"/>
	<polygon class="st0" points="646.1,516.4 569.8,452.9 569.8,502.1 646.9,567.8 718.1,627.2 718.1,577.5 646.2,516.5 	"/>
	<polygon class="st0" points="569.8,619.2 611.9,619.2 611.9,560.5 569.8,524.8 	"/>
	<path class="st0" d="M861.4,542.6c-3.6-4-7.9-7.5-12.8-10.4c-4.9-2.9-10.3-5.5-16.2-7.6c-6.8-2.4-12.8-4.6-18-6.7
		c-5.2-2-9.3-4.2-12.2-6.6c-2.9-2.3-4.4-5.2-4.4-8.7c0-3,1.3-5.4,3.9-7.2c2.6-1.8,6-2.7,10.4-2.7c3.5,0,6.9,0.7,10.2,2
		c3.3,1.4,6.4,3.3,9.4,5.8c2.9,2.5,5.5,5.6,7.8,9.4l33.1-18.3c-2.9-5.4-6.9-10.8-12.2-16.2c-5.3-5.4-12-9.8-20.1-13.4
		c-8.1-3.5-17.8-5.3-29-5.3c-10.7,0-20.4,1.8-29.2,5.4c-8.8,3.6-15.8,8.9-21.1,15.7c-5.3,6.9-7.9,15.3-7.9,25.2
		c0,7.8,1.5,14.6,4.4,20.4c2.9,5.7,6.6,10.6,11.1,14.5c4.5,3.9,9.1,7.1,13.9,9.6s9.2,4.5,13.1,6c8,3,14.2,5.6,18.7,7.7
		c4.4,2.1,7.6,4.2,9.4,6.2s2.7,4.6,2.7,7.6c0,4.2-1.6,7.4-4.8,9.6c-3.2,2.2-7.2,3.3-12,3.3c-5,0-9.8-1.1-14.5-3.2
		c-4.7-2.1-9-5.2-12.9-9.2c-3.9-4-7.5-8.8-10.6-14.4L741.7,583c3.5,7.8,8.6,15,15.4,21.4c6.8,6.4,14.8,11.5,24.1,15.2
		c9.3,3.7,19.4,5.6,30.2,5.6c7.7,0,15.2-1.1,22.6-3.3c7.4-2.2,14-5.4,19.8-9.7c5.8-4.3,10.4-9.7,13.8-16.2c3.4-6.5,5.1-14,5.1-22.4
		c0-6.3-1-12.1-2.9-17.2C867.8,551.2,865,546.6,861.4,542.6z"/>
	<path class="st0" d="M937.3,460.8h-29.9v0h-24.5c0,13.1,10.6,23.7,23.7,23.7h0.8v134.8h42.1v-59.5h56.4v-34.6h-56.4v-26.9h58.6
		v-37.3h-58.6H937.3z"/>
	<polygon class="st0" points="1066,460.8 1036.2,460.8 1036.2,619.2 1066,619.2 1078.3,619.2 1145.9,619.2 1145.9,583.7 
		1078.3,583.7 1078.3,554 1141.4,554 1141.4,519.6 1078.3,519.6 1078.3,496.3 1145.9,496.3 1145.9,460.8 1078.3,460.8 	"/>
	<polygon class="st0" points="1282.4,541.4 1176.3,452.9 1176.3,619.2 1218.4,619.2 1218.4,538.6 1324.5,627.2 1324.5,460.8 
		1282.4,460.8 	"/>
	<path class="st0" d="M1499.3,494.2c-7.7,8.3-14.2,16.6-19.6,24.7c2.5,5.9,3.8,12.4,3.8,19.2c0,9.5-2.6,18.3-7.2,25.8
		c-8.7,14.3-24.5,23.9-42.5,23.9c-8,0-15.6-1.9-22.2-5.2c-1.1-0.6-2.2-1.1-3.2-1.8c-6.1-3.6-11.3-8.5-15.4-14.3
		c-5.6-8-8.9-17.8-8.9-28.4c0-6.4,1.2-12.6,3.4-18.2c1-2.4,2.1-4.8,3.4-7c0.6-1.1,1.3-2.1,2-3.1c2.7-3.9,6-7.4,9.7-10.4
		c2.8-2.2,5.7-4.1,8.9-5.7c6.7-3.4,14.2-5.2,22.2-5.2c10.3,0,19.9,3.1,27.8,8.5c4.8-4.5,9.8-8.6,14.6-12.3c2.8-2.2,5.6-4.2,8.3-6
		c-3.9-3-8.2-5.7-12.9-8c-12.9-6.4-28.3-9.6-46.3-9.6h-13.8H1396h-29.9v0h-24.2c0,13.1,10.6,23.7,23.7,23.7h0.6v134.7h29.9h15.6
		h13.8c18,0,33.4-3.2,46.3-9.6c12.9-6.4,22.9-15.5,29.9-27.4c7-11.8,10.5-25.9,10.5-42.2c0-16.5-3.5-30.6-10.5-42.3
		C1500.9,496.5,1500.1,495.3,1499.3,494.2z"/>
	<path class="st0" d="M1476.4,512.2v-0.8c-0.1,0.1-0.2,0.2-0.3,0.4C1476.2,511.9,1476.3,512,1476.4,512.2z"/>
	<path class="st0" d="M1467.3,501.2c-3.4,3.1-6.7,6.5-10,10c-8,8.8-15.1,18.8-20.2,29.9c-6-14.2-12.4-21.4-12.4-21.4l-13.1,5.7
		l-11.7,5.1l-0.6,0.3c0,0,0.3,0,0.9,0.1c1.8,0.3,6.1,1.8,11.4,8c4.5,5.3,9.7,14.1,14.8,28.6h22.4c2.1-7.2,7-21.7,16.6-38.8
		c3-5.4,6.6-11.1,10.6-16.9c0.1-0.1,0.2-0.2,0.3-0.4c5.3-7.5,11.5-15.3,18.7-22.9c7.2-7.6,15.3-15,24.6-22.1
		c-0.6,0.3-13.6,6-29.6,16.8c-4.4,3-9.1,6.4-13.8,10.2C1473.3,495.8,1470.3,498.4,1467.3,501.2z"/>
</g>
</svg>
