<?xml version="1.0"?>
<svg width="1200" height="200" xmlns="http://www.w3.org/2000/svg" xmlns:svg="http://www.w3.org/2000/svg" enable-background="new 0 0 1920 1080" version="1.1" xml:space="preserve">
 <style type="text/css">.st0{fill:#FFFFFF;}</style>

 <g class="layer">
  <title>Layer 1</title>
  <g id="svg_1">
   <path class="st0" d="m115.25,137.6c2.5,-0.7 4.8,-1.6 7,-2.7c-2.2,1.1 -4.5,2 -7,2.7z" id="svg_2"/>
   <path class="st0" d="m175.85,56.7c-7,-11.8 -17,-20.9 -29.9,-27.3c-12.9,-6.4 -28.3,-9.6 -46.3,-9.6l-59.3,0l0,158.4l59.3,0c18,0 33.4,-3.2 46.3,-9.6c12.9,-6.4 22.9,-15.5 29.9,-27.4c7,-11.8 10.5,-25.9 10.5,-42.2c0,-16.5 -3.5,-30.6 -10.5,-42.3zm-39,62.8c-2.5,5.3 -5.8,9.5 -9.8,12.4c-1,0.7 -2.1,1.4 -3.2,2c-0.5,0.3 -1.1,0.6 -1.6,0.9c-2.2,1.1 -4.6,2 -7,2.7c-0.6,0.2 -1.2,0.3 -1.9,0.5c-5.1,1.1 -10.2,1.7 -15.5,1.7l-12,0l0,-81.5l12,0c5.3,0 10.5,0.6 15.5,1.7c5,1.1 9.6,3.2 13.7,6.1c4.1,2.9 7.4,7.1 9.8,12.4c2.5,5.4 3.7,12.2 3.7,20.5s-1.2,15.2 -3.7,20.6z" id="svg_3"/>
   <polygon class="st0" id="svg_4" points="316.04997634887695,78.0999755859375 358.14995193481445,113.79998779296875 358.14995193481445,19.79998779296875 316.04997634887695,19.79998779296875 "/>
   <polygon class="st0" id="svg_5" points="286.14995193481445,75.4000244140625 209.8499641418457,11.899993896484375 209.8499641418457,61.100006103515625 286.95000076293945,126.79998779296875 358.14995193481445,186.20001220703125 358.14995193481445,136.5 286.2499885559082,75.5 "/>
   <polygon class="st0" id="svg_6" points="209.8499641418457,178.20001220703125 251.95000076293945,178.20001220703125 251.95000076293945,119.5 209.8499641418457,83.79998779296875 "/>
   <path class="st0" d="m501.45,101.6c-3.6,-4 -7.9,-7.5 -12.8,-10.4c-4.9,-2.9 -10.3,-5.5 -16.2,-7.6c-6.8,-2.4 -12.8,-4.6 -18,-6.7c-5.2,-2 -9.3,-4.2 -12.2,-6.6c-2.9,-2.3 -4.4,-5.2 -4.4,-8.7c0,-3 1.3,-5.4 3.9,-7.2c2.6,-1.8 6,-2.7 10.4,-2.7c3.5,0 6.9,0.7 10.2,2c3.3,1.4 6.4,3.3 9.4,5.8c2.9,2.5 5.5,5.6 7.8,9.4l33.1,-18.3c-2.9,-5.4 -6.9,-10.8 -12.2,-16.2c-5.3,-5.4 -12,-9.8 -20.1,-13.4c-8.1,-3.5 -17.8,-5.3 -29,-5.3c-10.7,0 -20.4,1.8 -29.2,5.4c-8.8,3.6 -15.8,8.9 -21.1,15.7c-5.3,6.9 -7.9,15.3 -7.9,25.2c0,7.8 1.5,14.6 4.4,20.4c2.9,5.7 6.6,10.6 11.1,14.5c4.5,3.9 9.1,7.1 13.9,9.6s9.2,4.5 13.1,6c8,3 14.2,5.6 18.7,7.7c4.4,2.1 7.6,4.2 9.4,6.2s2.7,4.6 2.7,7.6c0,4.2 -1.6,7.4 -4.8,9.6c-3.2,2.2 -7.2,3.3 -12,3.3c-5,0 -9.8,-1.1 -14.5,-3.2c-4.7,-2.1 -9,-5.2 -12.9,-9.2c-3.9,-4 -7.5,-8.8 -10.6,-14.4l-29.9,21.9c3.5,7.8 8.6,15 15.4,21.4c6.8,6.4 14.8,11.5 24.1,15.2c9.3,3.7 19.4,5.6 30.2,5.6c7.7,0 15.2,-1.1 22.6,-3.3c7.4,-2.2 14,-5.4 19.8,-9.7c5.8,-4.3 10.4,-9.7 13.8,-16.2c3.4,-6.5 5.1,-14 5.1,-22.4c0,-6.3 -1,-12.1 -2.9,-17.2c-2,-5.2 -4.8,-9.8 -8.4,-13.8z" id="svg_7"/>
   <path class="st0" d="m577.35,19.8l-29.9,0l0,0l-24.5,0c0,13.1 10.6,23.7 23.7,23.7l0.8,0l0,134.8l42.1,0l0,-59.5l56.4,0l0,-34.6l-56.4,0l0,-26.9l58.6,0l0,-37.3l-58.6,0l-12.2,0l0,-0.2z" id="svg_8"/>
   <polygon class="st0" id="svg_9" points="706.0499153137207,19.79998779296875 676.2498664855957,19.79998779296875 676.2498664855957,178.20001220703125 706.0499153137207,178.20001220703125 718.3499641418457,178.20001220703125 785.9500617980957,178.20001220703125 785.9500617980957,142.70001220703125 718.3499641418457,142.70001220703125 718.3499641418457,113 781.4500617980957,113 781.4500617980957,78.5999755859375 718.3499641418457,78.5999755859375 718.3499641418457,55.29998779296875 785.9500617980957,55.29998779296875 785.9500617980957,19.79998779296875 718.3499641418457,19.79998779296875 "/>
   <polygon class="st0" id="svg_10" points="922.4500617980957,100.4000244140625 816.3499641418457,11.899993896484375 816.3499641418457,178.20001220703125 858.4500617980957,178.20001220703125 858.4500617980957,97.5999755859375 964.5499153137207,186.20001220703125 964.5499153137207,19.79998779296875 922.4500617980957,19.79998779296875 "/>
   <path class="st0" d="m1139.35,53.2c-7.7,8.3 -14.2,16.6 -19.6,24.7c2.5,5.9 3.8,12.4 3.8,19.2c0,9.5 -2.6,18.3 -7.2,25.8c-8.7,14.3 -24.5,23.9 -42.5,23.9c-8,0 -15.6,-1.9 -22.2,-5.2c-1.1,-0.6 -2.2,-1.1 -3.2,-1.8c-6.1,-3.6 -11.3,-8.5 -15.4,-14.3c-5.6,-8 -8.9,-17.8 -8.9,-28.4c0,-6.4 1.2,-12.6 3.4,-18.2c1,-2.4 2.1,-4.8 3.4,-7c0.6,-1.1 1.3,-2.1 2,-3.1c2.7,-3.9 6,-7.4 9.7,-10.4c2.8,-2.2 5.7,-4.1 8.9,-5.7c6.7,-3.4 14.2,-5.2 22.2,-5.2c10.3,0 19.9,3.1 27.8,8.5c4.8,-4.5 9.8,-8.6 14.6,-12.3c2.8,-2.2 5.6,-4.2 8.3,-6c-3.9,-3 -8.2,-5.7 -12.9,-8c-12.9,-6.4 -28.3,-9.6 -46.3,-9.6l-13.8,0l-15.4,0l-29.9,0l0,0l-24.2,0c0,13.1 10.6,23.7 23.7,23.7l0.6,0l0,134.7l29.9,0l15.6,0l13.8,0c18,0 33.4,-3.2 46.3,-9.6c12.9,-6.4 22.9,-15.5 29.9,-27.4c7,-11.8 10.5,-25.9 10.5,-42.2c0,-16.5 -3.5,-30.6 -10.5,-42.3c-0.8,-1.5 -1.6,-2.7 -2.4,-3.8z" id="svg_11"/>
   <path class="st0" d="m1116.45,71.2l0,-0.8c-0.1,0.1 -0.2,0.2 -0.3,0.4c0.1,0.1 0.2,0.2 0.3,0.4z" id="svg_12"/>
   <path class="st0" d="m1107.35,60.2c-3.4,3.1 -6.7,6.5 -10,10c-8,8.8 -15.1,18.8 -20.2,29.9c-6,-14.2 -12.4,-21.4 -12.4,-21.4l-13.1,5.7l-11.7,5.1l-0.6,0.3c0,0 0.3,0 0.9,0.1c1.8,0.3 6.1,1.8 11.4,8c4.5,5.3 9.7,14.1 14.8,28.6l22.4,0c2.1,-7.2 7,-21.7 16.6,-38.8c3,-5.4 6.6,-11.1 10.6,-16.9c0.1,-0.1 0.2,-0.2 0.3,-0.4c5.3,-7.5 11.5,-15.3 18.7,-22.9c7.2,-7.6 15.3,-15 24.6,-22.1c-0.6,0.3 -13.6,6 -29.6,16.8c-4.4,3 -9.1,6.4 -13.8,10.2c-2.9,2.4 -5.9,5 -8.9,7.8z" id="svg_13"/>
  </g>
 </g>
</svg>
